<?xml version="1.0" encoding="UTF-8" standalone="no"?>
<!-- Created with Inkscape (http://www.inkscape.org/) -->
<svg
   xmlns:dc="http://purl.org/dc/elements/1.1/"
   xmlns:cc="http://web.resource.org/cc/"
   xmlns:rdf="http://www.w3.org/1999/02/22-rdf-syntax-ns#"
   xmlns:svg="http://www.w3.org/2000/svg"
   xmlns="http://www.w3.org/2000/svg"
   xmlns:xlink="http://www.w3.org/1999/xlink"
   xmlns:sodipodi="http://sodipodi.sourceforge.net/DTD/sodipodi-0.dtd"
   xmlns:inkscape="http://www.inkscape.org/namespaces/inkscape"
   width="640"
   height="160"
   id="svg2"
   sodipodi:version="0.32"
   inkscape:version="0.44"
   sodipodi:docbase="C:\Documents and Settings\Stephen Bounds\My Documents\development\Clamshell\images"
   sodipodi:docname="clam-logo.svg"
   version="1.0"
   inkscape:export-filename="C:\Documents and Settings\Stephen Bounds\My Documents\development\Clamshell\images\clam-logo.png"
   inkscape:export-xdpi="90"
   inkscape:export-ydpi="90">
  <defs
     id="defs4">
    <linearGradient
       id="linearGradient14804">
      <stop
         style="stop-color:#000060;stop-opacity:1;"
         offset="0"
         id="stop14806" />
      <stop
         style="stop-color:#300000;stop-opacity:0;"
         offset="1"
         id="stop14808" />
    </linearGradient>
    <linearGradient
       id="linearGradient11198">
      <stop
         style="stop-color:#ebecff;stop-opacity:1;"
         offset="0"
         id="stop11200" />
      <stop
         style="stop-color:white;stop-opacity:1;"
         offset="1"
         id="stop11202" />
    </linearGradient>
    <linearGradient
       id="linearGradient11190">
      <stop
         style="stop-color:#1f2030;stop-opacity:1;"
         offset="0"
         id="stop11192" />
      <stop
         style="stop-color:#3f4050;stop-opacity:1;"
         offset="1"
         id="stop11194" />
    </linearGradient>
    <linearGradient
       id="linearGradient4855">
      <stop
         style="stop-color:#eac3c8;stop-opacity:1;"
         offset="0"
         id="stop4857" />
      <stop
         style="stop-color:#f2f2fa;stop-opacity:0.97254902;"
         offset="1"
         id="stop4859" />
    </linearGradient>
    <linearGradient
       inkscape:collect="always"
       xlink:href="#linearGradient14804"
       id="linearGradient14810"
       x1="0"
       y1="90"
       x2="640"
       y2="90"
       gradientUnits="userSpaceOnUse"
       gradientTransform="matrix(0.21875,0,0,3.555556,2e-5,-640.0002)" />
    <linearGradient
       inkscape:collect="always"
       xlink:href="#linearGradient11190"
       id="linearGradient14824"
       gradientUnits="userSpaceOnUse"
       gradientTransform="matrix(3.723999,0,0,3.723999,-1869.549,-139.8798)"
       x1="74.285706"
       y1="715.2193"
       x2="744.28571"
       y2="715.2193" />
    <linearGradient
       inkscape:collect="always"
       xlink:href="#linearGradient4855"
       id="linearGradient14826"
       gradientUnits="userSpaceOnUse"
       x1="265.21426"
       y1="708.79077"
       x2="427.64285"
       y2="708.79077" />
    <linearGradient
       inkscape:collect="always"
       xlink:href="#linearGradient11198"
       id="linearGradient14828"
       gradientUnits="userSpaceOnUse"
       x1="452.09277"
       y1="86.842232"
       x2="620.72607"
       y2="86.842232" />
    <linearGradient
       inkscape:collect="always"
       xlink:href="#linearGradient11198"
       id="linearGradient14830"
       gradientUnits="userSpaceOnUse"
       x1="453.50769"
       y1="137.37392"
       x2="619.604"
       y2="137.37392" />
  </defs>
  <sodipodi:namedview
     id="base"
     pagecolor="white"
     bordercolor="#666666"
     borderopacity="1.0"
     gridtolerance="10000"
     guidetolerance="10"
     objecttolerance="10"
     inkscape:pageopacity="1"
     inkscape:pageshadow="2"
     inkscape:zoom="1.3"
     inkscape:cx="346.6328"
     inkscape:cy="113.06197"
     inkscape:document-units="px"
     inkscape:current-layer="layer1"
     inkscape:window-width="853"
     inkscape:window-height="539"
     inkscape:window-x="88"
     inkscape:window-y="80"
     width="640px"
     height="160px"
     units="px"
     showguides="true"
     inkscape:guide-bbox="true" />
  <metadata
     id="metadata7">
    <rdf:RDF>
      <cc:Work
         rdf:about="">
        <dc:format>image/svg+xml</dc:format>
        <dc:type
           rdf:resource="http://purl.org/dc/dcmitype/StillImage" />
      </cc:Work>
    </rdf:RDF>
  </metadata>
  <g
     inkscape:label="Layer 1"
     inkscape:groupmode="layer"
     id="layer1">
    <text
       xml:space="preserve"
       style="font-size:16px;font-style:normal;font-weight:bold;text-align:end;text-anchor:end;fill:black;fill-opacity:1;stroke:none;stroke-width:1px;stroke-linecap:butt;stroke-linejoin:miter;stroke-opacity:1;font-family:Kimberley"
       x="427.21396"
       y="62.61087"
       id="text16620"><tspan
         sodipodi:role="line"
         id="tspan16622"
         x="427.21396"
         y="62.61087"
         style="font-size:36px;font-weight:bold;text-align:end;text-anchor:end;fill:black;fill-opacity:1;font-family:Showcard Gothic">C<tspan
   style="font-size:32px;fill:black;fill-opacity:1"
   id="tspan16624">lamshell</tspan></tspan><tspan
         sodipodi:role="line"
         x="427.21396"
         y="107.61087"
         style="font-size:36px;font-weight:bold;text-align:end;text-anchor:end;fill:black;fill-opacity:1;font-family:Showcard Gothic"
         id="tspan16626"><tspan
   style="font-size:32px;fill:black;fill-opacity:1"
   id="tspan16628">Open</tspan>ID S<tspan
   style="font-size:32px;fill:black;fill-opacity:1"
   id="tspan16630">erver</tspan></tspan></text>
    <rect
       style="opacity:1;fill:url(#linearGradient14810);fill-opacity:1;fill-rule:nonzero;stroke:none;stroke-width:1;stroke-linecap:round;stroke-linejoin:miter;stroke-miterlimit:4;stroke-dasharray:none;stroke-dashoffset:0;stroke-opacity:1"
       id="rect13917"
       width="140"
       height="640"
       x="0"
       y="-640"
       transform="matrix(0,1,-1,0,0,0)" />
    <g
       id="g14812"
       transform="matrix(1.000002,0,0,1,-3.077658,-23.07716)">
      <path
         transform="matrix(0.252909,-2.368142e-2,1.874976e-2,0.319431,419.3166,-103.3589)"
         d="M 744.28571 715.2193 A 335 70 0 1 1  74.285706,715.2193 A 335 70 0 1 1  744.28571 715.2193 z"
         sodipodi:ry="70"
         sodipodi:rx="335"
         sodipodi:cy="715.2193"
         sodipodi:cx="409.28571"
         id="path10303"
         style="fill:url(#linearGradient14824);fill-opacity:1;fill-rule:nonzero;stroke:none;stroke-width:1;stroke-linecap:round;stroke-linejoin:miter;stroke-miterlimit:4;stroke-dasharray:none;stroke-dashoffset:0;stroke-opacity:1"
         sodipodi:type="arc" />
      <path
         transform="matrix(0.268529,0,0,0.268529,440.5276,-68.58946)"
         d="M 427.14285 708.79077 A 80.714287 80.714287 0 1 1  265.71427,708.79077 A 80.714287 80.714287 0 1 1  427.14285 708.79077 z"
         sodipodi:ry="80.714287"
         sodipodi:rx="80.714287"
         sodipodi:cy="708.79077"
         sodipodi:cx="346.42856"
         id="path3968"
         style="fill:url(#linearGradient14826);fill-opacity:1;fill-rule:nonzero;stroke:#7f7f7f;stroke-width:1;stroke-linecap:round;stroke-linejoin:miter;stroke-miterlimit:4;stroke-dasharray:none;stroke-dashoffset:0;stroke-opacity:0.62745098"
         sodipodi:type="arc" />
      <path
         sodipodi:nodetypes="ccccccccccccccccccccccccccccccc"
         d="M 620.67157,101.04839 C 619.82641,93.981691 616.39329,87.420338 609.11926,86.036216 C 607.63875,81.671538 600.02127,81.243433 597.26376,80.676251 C 596.05465,79.588021 598.55559,79.090606 594.3691,78.221625 C 595.61582,74.685882 587.21974,75.955162 590.6029,75.546174 C 591.35844,73.137638 586.32361,74.879618 585.76972,73.008003 C 583.29991,74.797002 582.88857,71.725608 581.6667,71.948696 C 578.58458,70.176878 576.26982,74.292205 576.45698,70.150575 C 576.00774,67.322395 568.6773,61.476331 564.07036,59.674402 C 558.60456,58.613052 565.42563,65.030503 560.69139,63.175612 C 560.88242,59.38101 554.7537,60.410698 552.13498,59.87483 C 545.24804,61.822967 539.12275,57.035922 532.60595,55.854032 C 524.05031,54.693431 517.08089,60.15132 510.95507,65.072815 C 510.72635,63.351979 503.73969,62.39423 500.79575,65.339043 C 494.99381,63.232873 489.32877,68.645258 484.25908,71.173069 C 480.6486,74.665321 471.66575,79.121893 471.61793,82.583586 C 466.5234,82.628798 465.22981,91.118361 460.89401,96.223334 C 453.50943,101.68548 452.89977,105.85498 452.09276,113.36644 C 453.46375,113.09531 453.3963,112.65152 455.23336,114.2776 C 461.16581,117.97617 468.0551,107.34556 474.27023,106.52901 C 479.31991,107.44426 482.99084,107.29953 485.26017,111.30034 C 487.03613,114.94947 490.82474,117.80789 494.97758,117.21366 C 508.3251,115.02705 501.30858,110.93091 518.21311,103.48807 C 533.4313,104.05955 543.56302,113.24227 555.40797,117.76008 C 557.66377,118.28476 560.01969,117.70911 562.27811,117.93086 C 568.919,116.15143 571.60275,109.15309 576.09922,104.68051 C 578.77818,101.61075 583.04164,107.06961 586.5859,109.55811 C 595.12679,112.1137 602.7978,104.7104 611.35557,106.85494 C 614.65482,107.57775 621.39944,105.65555 620.67157,101.04839 z M 576.89431,71.574192 C 576.59893,69.91703 577.76733,72.237741 576.89431,71.574192 z "
         style="fill:url(#linearGradient14828);fill-opacity:1;stroke:none;stroke-opacity:1"
         id="path9406" />
      <path
         sodipodi:nodetypes="ccccccccccccccccccccccccccccccc"
         d="M 619.60401,108.7191 C 618.34794,114.88973 610.7596,119.4456 608.2943,122.27503 C 599.45705,130.61038 589.20384,137.26767 580.18757,145.41044 C 571.88095,147.26264 568.02086,156.90587 559.19389,157.86019 C 554.12214,162.35824 547.04737,166.81601 540.562,162.3167 C 539.66076,164.02057 533.7849,163.36369 535.66797,163.02524 C 532.97356,161.61495 532.10777,160.98469 533.82223,163.72728 C 531.29217,166.6648 527.62433,165.16979 526.32454,166.02874 C 523.62006,165.83148 528.65317,160.61237 524.6316,163.76053 C 522.34633,161.37744 519.45243,165.48249 516.45351,162.27051 C 509.43143,163.30421 503.73168,158.04945 497.01475,157.18269 C 491.37425,153.39531 484.29949,151.68725 479.32249,147.0624 C 474.4608,146.71272 470.40832,140.40747 465.82013,138.17395 C 468.94895,134.41723 464.50896,135.4124 465.19894,136.71082 C 459.17463,133.94398 455.77489,131.79323 453.5077,124.2493 C 463.34318,125.60951 472.08389,122.95655 480.57027,121.58826 C 484.41739,123.31138 486.76137,127.16772 490.41983,129.17252 C 493.06849,131.87882 492.8055,136.26479 495.27906,133.5654 C 495.7827,136.2508 497.45414,136.8927 501.40238,135.59916 C 507.04094,134.216 510.25831,128.18323 519.24139,127.0278 C 526.58197,122.67903 532.90498,124.67999 537.61489,126.64695 C 541.36474,128.31089 545.14608,130.0396 548.77173,131.88139 C 554.23728,136.70287 562.93371,135.72548 568.05097,130.8878 C 571.58152,127.88288 573.57154,123.41608 574.04454,118.87433 C 575.89491,114.65547 581.26955,114.72518 585.18119,114.65711 C 587.9393,114.40076 592.65168,116.20911 593.08391,112.4242 C 598.14667,114.84532 602.41931,113.71518 601.00072,112.41535 C 602.17424,114.16431 606.34272,109.60844 610.48831,111.57936 C 613.76715,108.99657 613.11361,111.2008 619.60401,108.7191 z M 521.40088,162.90872 C 519.71818,162.23888 521.0964,163.52833 521.40088,162.90872 z "
         style="fill:url(#linearGradient14830);fill-opacity:1;stroke:none;stroke-opacity:1"
         id="path6722" />
      <path
         sodipodi:nodetypes="cccccccccccccccccccccccccccccccccccccccccccccccccccccccccccccccccccccccccccccccccccccccccccccccccccccccccccc"
         d="M 495.1713,117.77093 C 491.01846,118.36516 487.22986,115.50675 485.4539,111.85761 C 483.18457,107.8568 479.51363,108.00153 474.46395,107.08628 C 468.24882,107.90283 461.35953,118.53344 455.42708,114.83487 C 453.59003,113.20879 453.65747,113.65258 453.50389,115.73075 C 450.36451,118.17186 446.21857,108.85268 452.02724,111.20989 C 460.34578,114.56539 469.35412,105.31896 477.97271,104.99744 C 481.63207,107.19383 485.09944,105.96646 488.54064,108.42113 C 492.48439,108.24027 489.39036,101.69034 490.51457,98.997558 C 491.65137,92.010702 495.99295,85.895878 496.18264,78.680128 C 497.24486,74.639276 499.69765,71.019699 502.57391,68.06563 C 504.87041,68.161745 501.21606,73.019544 500.68237,74.870764 C 497.71974,82.002581 498.89625,90.297181 495.25732,97.183363 C 492.45947,101.1334 494.7083,106.20924 495.16808,110.57978 C 495.38713,113.32583 494.74862,117.00426 498.82782,116.19806 C 504.60433,115.51066 508.45467,102.97263 514.34976,102.75707 C 516.38467,102.67635 519.97617,105.68623 516.06996,104.9976 C 501.50231,111.48818 508.51883,115.58432 495.1713,117.77093 z M 555.60169,118.31735 C 543.75674,113.79954 533.62503,104.61682 520.74371,103.09308 C 525.33625,99.483413 531.43851,102.26268 535.93362,104.80914 C 539.5021,106.9344 543.09518,109.12827 546.52084,111.41599 C 551.46876,116.90859 560.25577,117.00364 565.87691,112.79928 C 569.71991,110.23114 572.17917,106.012 573.13155,101.53098 C 575.42516,97.542429 580.78457,105.17962 584.69768,105.59374 C 587.47885,105.67749 593.949,107.91873 593.32956,103.23316 C 591.86438,98.451394 587.62341,95.344645 585.08304,91.157432 C 584.45267,89.822363 580.75506,85.821941 582.80077,85.605402 C 590.017,89.946976 591.47313,99.347183 598.13076,104.20527 C 602.10101,107.24304 606.3619,103.15612 610.2931,105.63698 C 613.54471,106.33717 617.93009,103.26605 616.16075,99.70854 C 613.75216,96.33911 609.01059,95.92941 606.50375,92.468522 C 605.42392,91.123039 600.88976,87.620078 602.31077,86.730638 C 604.98322,88.577962 607.74186,90.129581 610.60485,91.65499 C 614.60901,94.411265 618.87321,97.767051 620.33229,102.60073 C 621.06017,107.20788 614.84855,108.13502 611.54929,107.41221 C 602.99152,105.26767 595.32051,112.67097 586.77963,110.11538 C 583.23537,107.62688 578.9719,102.16802 576.29295,105.23778 C 571.79647,109.71036 569.11272,116.7087 562.47183,118.48813 C 560.21341,118.26638 557.8575,118.84203 555.60169,118.31735 z M 558.2676,112.89121 C 555.16451,105.07517 553.85514,103.5723 553.65964,95.23863 C 554.35152,92.813585 553.26568,90.014022 551.41735,88.34131 C 549.76157,88.092853 552.62001,86.339313 552.36551,84.975726 C 553.37386,81.020511 551.87044,76.430891 554.35839,72.904211 C 555.80803,71.660307 557.21571,70.209955 556.23716,68.100488 C 555.48871,66.423927 555.70017,63.624657 558.18538,64.080901 C 559.88402,64.403042 558.91423,67.507595 559.35809,68.993465 C 559.54765,74.322697 559.22175,79.765718 557.45492,84.801891 C 556.20251,85.829532 555.19758,88.733502 557.92059,88.260171 C 560.1947,87.955718 559.75085,91.764359 560.58566,93.359142 C 562.01985,99.402403 562.57998,98.70422 564.15828,104.71785 C 564.31619,107.68365 563.4606,110.86034 561.45078,113.05814 C 560.5689,114.00508 559.10308,113.88181 558.2676,112.89121 z M 503.95846,105.86673 C 502.33071,95.572484 506.44666,92.618601 508.27433,82.709725 C 510.48376,75.438024 513.65472,68.51982 517.08505,61.774138 C 523.93597,59.795877 517.05426,68.505575 516.15181,71.493644 C 513.53322,77.324454 511.35052,83.481928 510.90965,89.942387 C 507.90852,95.872506 509.15002,95.826475 507.59606,102.06978 C 507.05759,103.78359 505.95503,105.69401 503.95846,105.86673 z M 462.26703,108.51478 C 463.83392,101.73636 471.12821,88.068116 474.76982,82.483956 C 478.29893,79.649493 482.91561,72.828064 487.14909,73.912704 C 484.90534,78.166947 480.37406,80.754965 477.92198,84.965164 C 474.12205,89.964191 469.31861,101.01801 464.17876,104.75915 C 463.60205,105.03419 462.79333,109.04666 462.26703,108.51478 z M 576.43538,81.052691 C 575.54264,79.832203 572.35251,77.333057 573.44272,76.51914 C 574.76265,77.307405 576.44643,79.911478 577.15971,79.923672 C 578.60601,76.8525 579.60807,84.235458 577.08475,81.919315 C 577.00029,81.528393 576.68729,81.314083 576.43538,81.052691 z M 570.56721,74.393548 C 569.42557,73.296417 568.59872,71.916706 567.44389,70.827174 C 566.46038,69.527502 565.23431,68.178385 564.00998,67.478682 C 565.2763,65.890274 567.85635,66.983791 569.02805,68.361313 C 570.88383,69.956324 572.80362,71.541085 574.20249,73.57744 C 574.30838,74.919425 572.09018,74.465721 571.66846,75.29674 C 571.22118,75.100778 571.01092,74.595082 570.56721,74.393548 z M 575.67879,74.686637 C 575.84448,73.731839 577.67538,75.186973 577.37807,73.76631 C 578.41855,75.103552 576.12864,76.479898 575.67879,74.686637 z M 596.27572,82.830069 C 595.28517,81.909183 592.93373,82.52096 592.79403,80.836142 C 593.01717,79.749343 594.34044,80.917541 595.01587,80.11556 C 595.93481,79.26323 597.07563,80.0644 596.57006,81.206263 C 596.08022,82.119377 597.68331,83.323351 597.28363,83.761921 C 596.83631,83.652807 596.2418,83.384036 596.27572,82.830069 z M 589.97275,80.685338 C 588.53004,78.880705 586.13562,78.489206 584.19525,77.494129 C 584.15621,76.380682 583.13061,75.645167 582.41083,74.846962 C 583.52326,74.63216 584.6214,75.607584 585.68641,75.958661 C 587.44651,76.844385 589.2097,77.793332 590.77022,78.999242 C 591.28331,79.53779 591.63072,81.35698 590.52427,81.141644 C 590.31279,81.02709 590.14007,80.855513 589.97275,80.685338 z M 578.47907,77.139367 C 578.08951,76.552175 578.16705,74.856828 579.12374,75.241858 C 579.95025,75.700194 579.92732,77.681624 578.72799,77.320791 L 578.59578,77.243167 L 578.47907,77.139367 L 578.47907,77.139367 z M 593.35574,78.916968 C 593.80108,78.055145 593.87796,80.09519 593.35574,78.916968 z M 593.0441,77.107061 C 592.35754,76.067971 593.97486,76.150574 593.86761,77.056067 C 593.66621,77.276857 593.29471,77.180015 593.0441,77.107061 z M 548.87416,66.832582 C 541.53203,72.673854 540.87621,62.636186 548.87416,66.832582 z "
         style="fill:black"
         id="path3883" />
      <path
         sodipodi:nodetypes="cccccccccccccccccccccc"
         id="path2760"
         d="M 451.06907,112.11667 C 453.09349,106.41225 453.70315,102.24275 461.08773,96.780604 C 465.42353,91.675632 466.71712,83.186068 471.81166,83.140856 C 471.85947,79.679163 480.84232,75.222591 484.45281,71.730339 C 489.52249,69.202528 495.18753,63.790144 500.98947,65.896313 C 503.93341,62.951501 510.92007,63.90925 511.1488,65.630085 C 517.27461,60.708591 524.24403,55.250701 532.79968,56.411302 C 539.31648,57.593192 545.44177,62.380237 552.32871,60.4321 C 554.94743,60.967968 561.07614,59.93828 560.88512,63.732882 C 565.61936,65.587773 558.79829,59.170322 564.26408,60.231672 C 568.87103,62.033601 576.20147,67.879666 576.65071,70.707845 C 576.46354,74.849475 578.77831,70.734148 581.86043,72.505967 C 583.0823,72.282878 583.49364,75.354272 585.96344,73.565273 C 586.51734,75.436888 591.55216,73.694908 590.79662,76.103444 C 587.41347,76.512433 595.80954,75.243152 594.56283,78.778895 C 598.74931,79.647877 596.24837,80.145292 597.45748,81.233522 C 600.21499,81.800703 607.83247,82.228808 609.31298,86.593487 C 616.58702,87.977609 620.55313,93.543898 621.39829,100.6106 C 622.24345,107.67729 606.94564,106.70804 617.37083,105.46395 C 616.66508,106.72998 616.35268,104.29162 617.02832,105.03325 M 577.08803,72.131463 C 576.79265,70.4743 577.96106,72.795011 577.08803,72.131463 z "
         style="fill:none;stroke:black;stroke-width:0.80558705;stroke-miterlimit:4;stroke-dasharray:none;stroke-opacity:1" />
      <path
         d="M 551.94089,160.79514 C 549.01657,160.90267 550.6771,155.59198 553.07829,156.98139 C 551.36195,151.43211 559.43077,149.09242 558.90904,143.40513 C 559.10201,140.59891 564.02464,136.69552 562.63837,141.93592 C 561.56413,146.0466 560.29871,150.33628 556.25613,152.35507 C 553.23657,154.12624 554.36386,159.11667 557.04043,156.88659 C 556.27414,158.85968 554.41793,161.54207 551.94089,160.79514 z M 514.63419,160.46846 C 508.75331,157.57481 507.19121,150.70967 504.99777,145.12433 C 503.76888,141.92973 501.78323,138.51837 498.2703,137.51986 C 494.2271,138.61303 490.18299,136.25183 488.04584,132.86433 C 485.3842,129.18963 482.7258,124.28885 477.63821,124.00054 C 471.57954,125.56471 465.07836,129.32641 458.8271,126.39681 C 456.84106,125.01479 456.95413,125.44487 457.01958,127.51608 C 454.17132,130.30975 449.09851,121.61122 455.08717,123.23113 C 463.66135,125.531 472.40206,122.87804 480.88843,121.50975 C 484.73556,123.23287 487.07953,127.08921 490.738,129.094 C 493.38666,131.8003 493.12367,136.18629 495.59723,133.48689 C 496.10087,136.17229 497.77231,136.81419 501.72055,135.52064 C 507.35911,134.1375 510.57647,128.10472 516.38159,127.17312 C 518.38478,126.84531 522.24987,129.38014 518.31636,129.17625 C 513.27234,130.26099 507.59035,133.71363 507.24151,139.37317 C 506.74909,143.25732 511.30826,145.03725 510.40125,148.63086 C 511.57929,152.4465 515.23387,154.81551 516.69678,158.46026 C 517.12882,159.79463 515.64913,160.36563 514.63419,160.46846 z M 580.94576,143.45524 C 580.11806,140.55255 581.40616,137.27973 582.38423,135.0969 C 580.1906,133.5102 581.33704,132.00694 583.61802,132.57091 C 585.19951,133.4642 587.15689,133.82486 588.0007,132.19367 C 588.43011,134.02546 585.358,136.07216 585.31612,138.42284 C 584.37753,140.08955 583.5755,144.45483 580.94576,143.45524 z M 485.28494,142.80286 C 480.30885,139.73882 475.93049,135.72969 472.41299,131.18484 C 470.32831,129.93519 464.32641,132.26054 468.8013,129.06176 C 473.83825,127.68951 477.21339,133.40151 481.04658,134.86676 C 481.04114,138.69455 485.70326,139.25254 485.28494,142.80286 z M 558.78838,137.51185 C 546.60662,134.49396 535.63077,126.65994 522.73752,126.72546 C 526.90014,122.60052 533.22314,124.60147 537.93306,126.56844 C 541.68291,128.23238 545.46425,129.96108 549.0899,131.80288 C 554.55545,136.62436 563.25188,135.64697 568.36914,130.80928 C 571.89969,127.80437 573.88971,123.33756 574.36271,118.79582 C 576.21308,114.57695 581.58772,114.64667 585.49936,114.5786 C 588.25746,114.32225 592.96985,116.1306 593.40208,112.34569 C 598.46484,114.76681 602.73748,113.63667 601.31889,112.33684 C 602.49241,114.08579 606.66088,109.52993 610.80648,111.50085 C 614.08533,108.91806 613.923,109.75991 620.41339,107.2782 C 621.6146,111.73967 615.57098,113.41264 612.2339,113.10099 C 603.54983,112.02628 596.74058,120.27327 588.03022,118.79053 C 584.26634,116.76489 580.20284,118.71296 577.87548,122.07139 C 573.89805,127.03687 571.97666,134.27589 565.59778,136.84294 C 563.34202,136.89927 561.07324,137.75502 558.78838,137.51185 z "
         style="fill:black"
         id="path3845" />
      <path
         sodipodi:nodetypes="ccccccccccccccccccc"
         id="path3966"
         d="M 619.43093,110.00298 C 618.17487,116.1736 611.07777,119.36709 608.61247,122.19651 C 599.77522,130.53187 589.52201,137.18916 580.50574,145.33191 C 572.19912,147.18413 568.33903,156.82736 559.51206,157.78168 C 554.44031,162.27974 547.36554,166.73751 540.88017,162.2382 C 539.97893,163.94205 534.10307,163.28519 535.98614,162.94674 C 533.29173,161.53645 532.42594,160.90617 534.1404,163.64876 C 531.61034,166.58629 527.94249,165.09129 526.64271,165.95022 C 523.93823,165.75297 528.97134,160.53385 524.94977,163.682 C 522.6645,161.29892 519.7706,165.40398 516.77168,162.19199 C 509.7496,163.22571 504.04985,157.97094 497.33292,157.10417 C 491.69242,153.31678 484.61766,151.60873 479.64066,146.9839 C 474.77897,146.63421 470.72649,140.32896 466.1383,138.09545 C 469.26711,134.33872 464.82713,135.33389 465.51711,136.63232 C 459.4928,133.86547 456.09306,131.71472 452.56457,125.11044 M 521.71905,162.83022 C 520.03635,162.16036 521.41457,163.44981 521.71905,162.83022 z M 619.54991,108.84525 C 618.80446,108.19516 618.9846,110.18168 619.54991,108.84525 z "
         style="fill:none;stroke:black;stroke-width:0.80558699;stroke-miterlimit:4;stroke-dasharray:none;stroke-opacity:1" />
      <path
         transform="matrix(0.268529,0,0,0.268529,500.3712,-10.66391)"
         d="M 84.285715,480.9336 L 73.779116,451.78202 L 42.857147,453.79074 L 72.008725,443.28414 L 70.000006,412.36217 L 80.506605,441.51375 L 111.42857,439.50503 L 82.276995,450.01163 L 84.285715,480.9336 z "
         inkscape:randomized="0"
         inkscape:rounded="0"
         inkscape:flatsided="false"
         sodipodi:arg2="2.1507992"
         sodipodi:arg1="1.365401"
         sodipodi:r2="6.1379247"
         sodipodi:r1="35.021858"
         sodipodi:cy="446.64789"
         sodipodi:cx="77.14286"
         sodipodi:sides="4"
         id="path11208"
         style="fill:white;fill-opacity:1;fill-rule:nonzero;stroke:none;stroke-width:1;stroke-linecap:round;stroke-linejoin:miter;stroke-miterlimit:4;stroke-dasharray:none;stroke-dashoffset:0;stroke-opacity:1"
         sodipodi:type="star" />
      <path
         transform="matrix(0.152752,-7.637582e-2,7.637582e-2,0.152752,475.9568,46.93967)"
         d="M 84.285715,480.9336 L 73.779116,451.78202 L 42.857147,453.79074 L 72.008725,443.28414 L 70.000006,412.36217 L 80.506605,441.51375 L 111.42857,439.50503 L 82.276995,450.01163 L 84.285715,480.9336 z "
         inkscape:randomized="0"
         inkscape:rounded="0"
         inkscape:flatsided="false"
         sodipodi:arg2="2.1507992"
         sodipodi:arg1="1.365401"
         sodipodi:r2="6.1379247"
         sodipodi:r1="35.021858"
         sodipodi:cy="446.64789"
         sodipodi:cx="77.14286"
         sodipodi:sides="4"
         id="path12095"
         style="fill:white;fill-opacity:1;fill-rule:nonzero;stroke:none;stroke-width:1;stroke-linecap:round;stroke-linejoin:miter;stroke-miterlimit:4;stroke-dasharray:none;stroke-dashoffset:0;stroke-opacity:1"
         sodipodi:type="star" />
    </g>
    <text
       xml:space="preserve"
       style="font-size:16px;font-style:normal;font-weight:bold;text-align:end;text-anchor:end;fill:#fff4b7;fill-opacity:1;stroke:none;stroke-width:1px;stroke-linecap:butt;stroke-linejoin:miter;stroke-opacity:1;font-family:Kimberley"
       x="425.53848"
       y="58.923073"
       id="text15719"><tspan
         sodipodi:role="line"
         id="tspan15721"
         x="425.53848"
         y="58.923073"
         style="font-size:36px;font-weight:bold;text-align:end;text-anchor:end;fill:#fff4b7;fill-opacity:1;font-family:Showcard Gothic">C<tspan
   style="font-size:32px"
   id="tspan16616">lamshell</tspan></tspan><tspan
         sodipodi:role="line"
         x="425.53848"
         y="103.92307"
         style="font-size:36px;font-weight:bold;text-align:end;text-anchor:end;fill:#fff4b7;fill-opacity:1;font-family:Showcard Gothic"
         id="tspan15723"><tspan
   style="font-size:32px"
   id="tspan16614">Open</tspan>ID S<tspan
   style="font-size:32px"
   id="tspan16618">erver</tspan></tspan></text>
  </g>
</svg>
