<?xml version="1.0" encoding="UTF-8" standalone="no"?>
<!-- Created with Inkscape (http://www.inkscape.org/) -->
<svg
   xmlns:dc="http://purl.org/dc/elements/1.1/"
   xmlns:cc="http://web.resource.org/cc/"
   xmlns:rdf="http://www.w3.org/1999/02/22-rdf-syntax-ns#"
   xmlns:svg="http://www.w3.org/2000/svg"
   xmlns="http://www.w3.org/2000/svg"
   xmlns:sodipodi="http://sodipodi.sourceforge.net/DTD/sodipodi-0.dtd"
   xmlns:inkscape="http://www.inkscape.org/namespaces/inkscape"
   width="650.4917"
   height="350.83798"
   id="svg3887"
   sodipodi:version="0.32"
   inkscape:version="0.44"
   sodipodi:docbase="C:\Documents and Settings\Stephen Bounds\My Documents\development\Clamshell\images"
   sodipodi:docname="clam-closed.svg"
   version="1.0">
  <defs
     id="defs3889" />
  <sodipodi:namedview
     id="base"
     pagecolor="#ffffff"
     bordercolor="#666666"
     borderopacity="1.0"
     gridtolerance="10000"
     guidetolerance="10"
     objecttolerance="10"
     inkscape:pageopacity="0.0"
     inkscape:pageshadow="2"
     inkscape:zoom="0.35"
     inkscape:cx="375"
     inkscape:cy="520"
     inkscape:document-units="px"
     inkscape:current-layer="layer1"
     inkscape:window-width="853"
     inkscape:window-height="539"
     inkscape:window-x="22"
     inkscape:window-y="22" />
  <metadata
     id="metadata3892">
    <rdf:RDF>
      <cc:Work
         rdf:about="">
        <dc:format>image/svg+xml</dc:format>
        <dc:type
           rdf:resource="http://purl.org/dc/dcmitype/StillImage" />
      </cc:Work>
    </rdf:RDF>
  </metadata>
  <g
     inkscape:label="Layer 1"
     inkscape:groupmode="layer"
     id="layer1"
     transform="translate(-40.46843,-39.80033)">
    <path
       id="path2524"
       style="fill:black"
       d="M 423.47369,371.36939 C 412.58352,371.76986 418.76732,351.99288 427.70933,357.16702 C 421.3177,336.50156 451.36594,327.78855 449.42302,306.60914 C 450.14163,296.15881 468.47346,281.6226 463.31102,301.13781 C 459.31055,316.44597 454.59812,332.42069 439.54361,339.93863 C 428.29879,346.53446 432.49678,365.11878 442.46432,356.814 C 439.61066,364.16178 432.69816,374.15095 423.47369,371.36939 z M 284.54379,370.15284 C 262.64343,359.37691 256.82619,333.8112 248.65785,313.01143 C 244.08147,301.11477 236.68693,288.41088 223.60481,284.69242 C 208.54795,288.7634 193.48773,279.97032 185.52899,267.35527 C 175.61704,253.67072 165.71719,235.42026 146.77103,234.3466 C 124.20862,240.17156 99.998267,254.18008 76.718607,243.27029 C 69.322597,238.12365 69.743677,239.72528 69.987407,247.43844 C 59.380537,257.84205 40.489427,225.44878 62.791127,231.4813 C 94.721317,240.04601 127.27166,230.1664 158.87486,225.07091 C 173.20151,231.48779 181.93047,245.84877 195.55455,253.31461 C 210.00259,250.85891 196.06212,228.17326 199.15241,217.75891 C 200.61716,191.54542 214.21945,167.08422 212.10844,140.45886 C 214.4456,125.11452 222.06607,110.68827 231.50455,98.517481 C 239.9963,97.828351 228.43452,117.35425 227.19057,124.40526 C 219.06066,151.98085 226.62123,181.95391 215.90598,208.93312 C 207.14389,224.73145 217.39891,242.37919 220.79318,258.24512 C 222.66871,268.24554 221.75027,282.06454 236.45349,277.24737 C 257.45144,272.09655 269.4329,249.63052 291.05111,246.16126 C 298.51097,244.9405 312.90454,254.38017 298.25616,253.62088 C 279.47227,257.66047 258.31258,270.51806 257.01353,291.59415 C 255.17973,306.0587 272.15805,312.68714 268.78037,326.0697 C 273.16739,340.27914 286.77702,349.10129 292.22487,362.67433 C 293.8338,367.64352 288.32342,369.76991 284.54379,370.15284 z M 531.4876,306.79575 C 528.40523,295.98614 533.20213,283.79819 536.84445,275.66936 C 528.67537,269.76049 532.94472,264.16238 541.43907,266.26258 C 547.32853,269.58917 554.61779,270.9323 557.76013,264.85774 C 559.35927,271.67932 547.91875,279.30121 547.76278,288.05512 C 544.26747,294.26196 541.28072,310.51822 531.4876,306.79575 z M 175.24741,304.36628 C 156.7165,292.95584 140.4115,278.02584 127.31238,261.10086 C 119.54905,256.44719 97.197987,265.10675 113.86245,253.19453 C 132.62003,248.0843 145.18901,269.35573 159.46381,274.81232 C 159.44355,289.06696 176.80524,291.14491 175.24741,304.36628 z M 448.97369,284.6626 C 403.60889,273.42399 362.73492,244.25019 314.72055,244.49417 C 330.2221,229.13292 353.76893,236.58446 371.30863,243.90943 C 385.27302,250.10593 399.3547,256.54361 412.8566,263.40244 C 433.21029,281.3576 465.5957,277.7178 484.65237,259.7023 C 497.8001,248.51201 505.21092,231.87767 506.97237,214.96425 C 513.86313,199.25322 533.87825,199.51285 548.44516,199.25936 C 558.71633,198.30471 583.40807,203.61041 579.30341,186.6583 C 572.04781,169.73636 555.22558,160.23531 544.24322,145.98826 C 541.40283,141.36412 526.23295,128.32948 533.67972,126.60429 C 561.9358,139.29618 570.95621,173.20867 597.35697,188.0539 C 613.15572,197.42415 627.25053,180.45813 642.68871,187.79783 C 654.93176,188.89684 669.88034,175.6104 661.98164,163.32931 C 651.80284,152.03021 634.18778,152.67606 623.61167,141.08519 C 619.11255,136.62681 601.05671,125.80161 605.94169,121.88514 C 616.49924,127.4662 627.25899,131.92054 638.39267,136.23111 C 654.20666,144.55065 671.21134,154.95711 678.46474,172.07273 C 682.93807,188.6872 660.43165,194.91733 648.00439,193.75675 C 615.66497,189.75453 590.30738,220.46627 557.87008,214.94455 C 543.8534,207.40107 528.72098,214.65569 520.05389,227.16243 C 505.24196,245.65385 498.08674,272.6119 474.33185,282.1716 C 465.93139,282.38136 457.48247,285.56817 448.97369,284.6626 z M 456.67535,263.49509 C 442.20857,236.15688 434.11478,205.82741 430.15046,175.26526 C 431.75336,166.03193 426.66598,156.22823 419.21031,150.91522 C 413.01803,150.75314 422.85832,143.00594 421.39054,138.10626 C 423.56276,123.10134 416.24116,106.90347 424.02721,92.802931 C 428.8796,87.569751 433.49712,81.596321 429.0734,74.282061 C 425.66532,68.455541 425.35393,58.063931 434.68061,58.613671 C 441.05937,59.027291 438.69791,70.886001 440.91046,76.149451 C 443.68315,95.664091 444.60255,115.83127 440.05893,135.15626 C 435.84844,139.50449 433.27952,150.64142 443.11969,147.66426 C 451.37303,145.51203 451.2219,159.72157 454.91606,165.2081 C 462.54873,186.78384 467.02735,209.35807 475.17904,230.75939 C 476.91505,241.59581 475.00209,253.66798 468.45886,262.66388 C 465.581,266.54705 460.13674,266.75917 456.67535,263.49509 z M 254.00741,262.3162 C 244.00709,225.19341 255.32103,187.06404 258.19152,149.78982 C 263.49414,122.04169 272.47418,95.157171 282.47619,68.789431 C 306.92688,58.403081 284.98366,93.561351 282.82473,104.96108 C 275.45484,127.59542 269.81682,151.23333 270.70908,175.1948 C 261.96958,198.36808 269.21048,223.03155 265.92052,246.69971 C 264.60544,253.2475 261.29028,260.7745 254.00741,262.3162 z M 100.93204,231.02897 C 104.06128,205.38682 123.52841,186.36246 134.76049,164.17082 C 146.64896,152.14352 160.9889,124.95857 176.99628,127.02579 C 170.39249,143.69141 154.71872,155.26728 147.33085,171.86549 C 135.28814,191.97691 125.46642,214.3638 108.00118,230.45709 C 105.98517,231.7305 103.07664,232.74623 100.93204,231.02897 z M 508.47369,112.74955 C 504.71199,108.66596 491.99488,100.92255 495.69146,97.434031 C 500.85753,99.733971 508.07007,108.5472 510.70067,108.26821 C 514.82935,96.315931 521.39276,123.01521 511.2017,115.64214 C 510.73857,114.24269 509.50284,113.59657 508.47369,112.74955 z M 484.27801,90.921701 C 479.64806,87.404801 476.06692,82.705691 471.39133,79.222741 C 467.26463,74.889121 462.22577,70.483761 457.44609,68.466141 C 461.4895,62.049121 471.41341,64.899671 476.26319,69.434171 C 483.71604,74.458021 491.40054,79.415101 497.34316,86.269631 C 498.25548,91.157321 489.91278,90.495701 488.68381,93.743621 C 486.96091,93.225951 485.98997,91.461481 484.27801,90.921701 z M 503.20983,89.678961 C 503.44808,86.092031 510.75486,90.612711 509.10724,85.522541 C 513.4583,89.968481 505.56411,96.070261 503.20983,89.678961 z M 582.20568,110.27897 C 578.20056,107.34171 569.78219,110.65937 568.61191,104.52611 C 569.01028,100.4276 574.33655,104.12341 576.51085,100.8671 C 579.56196,97.315061 584.0737,99.743781 582.65707,104.17305 C 581.20928,107.75383 587.57963,111.45418 586.27902,113.24868 C 584.58977,113.05045 582.29651,112.33184 582.20568,110.27897 z M 558.16698,105.25235 C 552.1532,99.269981 543.18599,98.917151 535.6553,96.138251 C 535.07809,92.060761 531.01609,89.821201 528.05552,87.212221 C 532.06719,85.917131 536.48962,89.006141 540.54702,89.813861 C 547.3715,92.272411 554.23193,94.962101 560.44631,98.688901 C 562.54488,100.43671 564.53211,106.96989 560.375,106.68023 C 559.55186,106.35491 558.8492,105.80228 558.16698,105.25235 z M 514.47369,97.428651 C 512.81096,95.445841 512.43637,89.175221 516.1082,90.157001 C 519.32936,91.467501 520.0164,98.765531 515.46072,97.982901 L 514.94378,97.757431 L 514.47369,97.428651 L 514.47369,97.428651 z M 569.93261,97.212441 C 571.23653,93.840501 572.31383,101.3088 569.93261,97.212441 z M 568.08068,90.697161 C 565.1486,87.187141 571.13475,86.756671 571.09248,90.135731 C 570.43701,91.039221 569.03167,90.851701 568.08068,90.697161 z M 401.4737,72.961621 C 376.71869,97.778981 370.39634,61.158591 401.4737,72.961621 z " />
    <path
       style="fill:none;stroke:black;stroke-width:3;stroke-miterlimit:4;stroke-dasharray:none;stroke-opacity:1"
       d="M 330.69201,389.13833 C 320.62056,388.40375 339.36382,368.96781 324.38753,380.69149 C 315.87719,371.8169 305.10032,387.10414 293.93237,375.14271 C 267.78219,378.99226 246.55636,359.42354 221.54258,356.1957 C 200.5374,342.09149 174.19103,335.7307 155.65673,318.50787 C 137.55184,317.20562 122.46043,293.72493 105.37405,285.40737 C 117.02572,271.41731 100.49125,275.12334 103.06072,279.95867 C 80.626249,269.65495 62.251359,251.64555 41.968429,239.90843 C 52.914459,233.72297 57.652859,201.52347 81.082139,198.2883 C 94.621549,200.46685 107.67501,170.08379 126.41236,167.60453 C 125.24063,154.85085 156.57487,134.38147 168.50682,119.89791 C 186.18612,108.29904 204.9341,85.820517 227.1133,90.932797 C 236.80457,78.765317 262.89807,79.115867 264.41008,85.341187 C 285.04546,64.458947 308.57765,41.220867 340.52617,41.605167 C 364.9772,42.993427 389.39055,57.819037 413.98557,47.527137 C 423.83471,48.309117 445.996,41.739467 446.77016,55.782587 C 464.92091,60.455417 437.31135,39.949117 457.84629,41.371197 C 475.5078,45.907027 504.77009,64.080517 507.52504,74.278487 C 508.4485,89.596217 515.36778,73.409287 527.40411,78.526647 C 531.81543,77.151397 534.52555,88.261107 542.92133,80.559927 C 545.68911,87.192177 563.54605,78.499387 561.70236,87.700907 C 549.40688,90.741137 579.82192,82.260877 576.60886,95.831217 C 592.35928,97.126587 583.346,100.09151 588.2209,103.54503 C 598.59319,104.37917 626.80276,102.49531 633.95243,117.87626 C 661.26988,119.66452 678.03783,138.33646 683.90053,163.94377 C 695.27563,178.13425 688.15869,192.56119 671.94893,193.64834 C 675.84279,199.48485 645.12754,215.66309 635.94677,226.19984 C 603.03694,257.24063 564.85405,282.03233 531.27754,312.35589 C 500.34373,319.25355 485.96879,355.16484 453.09721,358.71873 C 434.21007,375.46946 407.86368,392.07016 383.71221,375.31477 C 380.35598,381.65991 358.47434,379.21377 365.48687,377.95338 C 355.4529,372.70146 352.22872,370.3543 358.61336,380.5677 C 349.19142,391.50704 335.5324,385.93968 330.69201,389.13833 z M 312.35635,377.51944 C 306.08998,375.02492 311.22244,379.8268 312.35635,377.51944 z M 688.10632,183.62271 C 685.33026,181.20177 686.0011,188.59955 688.10632,183.62271 z M 509.68926,79.315947 C 507.95665,73.355077 513.16154,81.360097 509.68926,79.315947 z "
       id="path2760"
       sodipodi:nodetypes="ccccccccccccccccccccccccccccccccccccccc" />
  </g>
</svg>
